<svg width="100" height="100" viewBox="0 0 100 100" xmlns="http://www.w3.org/2000/svg">
  <defs>
    <linearGradient id="cGradient" x1="0%" y1="0%" x2="100%" y2="100%">
      <stop offset="0%" style="stop-color:#A78BFA;stop-opacity:1" />
      <stop offset="100%" style="stop-color:#8B5CF6;stop-opacity:1" />
    </linearGradient>
    <filter id="sparkGlow" x="-50%" y="-50%" width="200%" height="200%">
      <feGaussianBlur stdDeviation="1.5" result="coloredBlur"/>
      <feMerge>
        <feMergeNode in="coloredBlur"/>
        <feMergeNode in="SourceGraphic"/>
      </feMerge>
    </filter>
  </defs>

  <path d="M75,15 C90,30 90,70 75,85 
           C60,100 30,100 15,85 
           C0,70 0,30 15,15 
           C30,0 60,0 75,15 Z
           M68,22 C78,32 78,68 68,78 
           C58,88 32,88 22,78 
           C12,68 12,32 22,22 
           C32,12 58,12 68,22 Z" 
        fill="url(#cGradient)" 
        transform="rotate(-10, 50, 50)"
        stroke="#C4B5FD" stroke-width="1.5"/>

  <!-- This path is subtracted from the C shape (conceptually) 
       or drawn on top with background color if not using masks/clips -->
  <rect x="38" y="30" width="20" height="32" rx="3" ry="3" fill="#2D3748" transform="rotate(15, 48, 46)" stroke="#4A5568" stroke-width="0.5"/>
   <rect x="39.5" y="31.5" width="17" height="29" rx="2" ry="2" fill="#2D3748" transform="rotate(15, 48, 46)" />


  <g transform="translate(70, 25) rotate(15)" filter="url(#sparkGlow)">
    <path d="M0 -12 L2 -7 L7 -7 L4 -2 L5 4 L0 2 L-5 4 L-4 -2 L-7 -7 L-2 -7 Z" fill="#FDE047"/>
    <path d="M0 -9 L1.5 -5.5 L5.5 -5.5 L3 -1.5 L3.8 3 L0 1.5 L-3.8 3 L-3 -1.5 L-5.5 -5.5 L-1.5 -5.5 Z" fill="#FEF9C3" transform="scale(0.7)"/>
  </g>
  
  <circle cx="78" cy="38" r="1.5" fill="#FDE047" filter="url(#sparkGlow)"/>
  <circle cx="65" cy="18" r="1" fill="#FEF9C3" filter="url(#sparkGlow)"/>

</svg>
